<svg width="1108" height="732" viewBox="0 0 1108 732" fill="none" xmlns="http://www.w3.org/2000/svg">
<g clip-path="url(#clip0)">
<path d="M1061.38 691.406C1058.38 685.896 1061.78 679.146 1065.66 674.226C1069.54 669.306 1074.27 664.226 1074.17 657.936C1074.03 648.936 1064.47 643.626 1056.84 638.856C1051.18 635.313 1045.95 631.114 1041.28 626.346C1039.32 624.508 1037.71 622.342 1036.5 619.946C1034.92 616.426 1034.97 612.426 1035.07 608.566C1035.39 595.726 1036.03 582.899 1036.97 570.086" stroke="#3F3D56" stroke-width="4" stroke-miterlimit="10"/>
<path d="M1022.49 569.376C1022.6 567.027 1023.29 564.743 1024.52 562.735C1025.74 560.727 1027.45 559.059 1029.49 557.886L1032.63 564.096L1032.54 556.576C1034.04 556.13 1035.6 555.941 1037.16 556.016C1039.92 556.153 1042.58 557.105 1044.8 558.753C1047.02 560.4 1048.71 562.669 1049.64 565.272C1050.58 567.876 1050.72 570.697 1050.05 573.381C1049.38 576.065 1047.93 578.491 1045.89 580.353C1043.84 582.214 1041.29 583.429 1038.56 583.842C1035.82 584.255 1033.02 583.849 1030.52 582.674C1028.02 581.5 1025.92 579.61 1024.48 577.244C1023.05 574.877 1022.35 572.139 1022.48 569.376H1022.49Z" fill="#0085CA"/>
<path d="M1047.52 664.375C1048.91 667.15 1051.19 669.384 1053.99 670.722C1056.8 672.061 1059.97 672.43 1063 671.77C1066.04 671.11 1068.77 669.46 1070.76 667.078C1072.76 664.696 1073.9 661.719 1074.02 658.615C1074.12 656.675 1073.81 654.736 1073.11 652.925C1072.1 650.244 1070.3 647.937 1067.94 646.313C1065.58 644.689 1062.78 643.828 1059.92 643.844C1057.06 643.86 1054.27 644.754 1051.93 646.405C1049.59 648.055 1047.81 650.383 1046.84 653.075L1055.61 660.205L1045.97 657.965C1045.96 660.195 1046.49 662.393 1047.52 664.375V664.375Z" fill="#0085CA"/>
<path d="M1054.45 637.126C1057.94 637.39 1061.41 636.333 1064.17 634.162C1066.92 631.991 1068.76 628.866 1069.32 625.404C1069.88 621.942 1069.13 618.395 1067.2 615.466C1065.27 612.537 1062.31 610.438 1058.91 609.586L1058.98 615.376L1055.8 609.086C1052.08 608.912 1048.44 610.223 1045.69 612.73C1042.94 615.238 1041.29 618.736 1041.12 622.456C1040.94 626.175 1042.26 629.812 1044.76 632.565C1047.27 635.318 1050.77 636.962 1054.49 637.136L1054.45 637.126Z" fill="#0085CA"/>
<path d="M1020.38 614.455C1024.09 614.63 1027.72 613.323 1030.47 610.821C1033.22 608.319 1034.86 604.828 1035.04 601.115C1035.21 597.402 1033.91 593.771 1031.4 591.022C1028.9 588.272 1025.41 586.63 1021.7 586.455C1019.07 586.324 1016.47 586.941 1014.18 588.235L1016.66 595.035L1011.55 590.135C1008.82 592.638 1007.19 596.122 1007.02 599.825C1006.95 601.119 1007.07 602.416 1007.38 603.675C1008.08 606.642 1009.72 609.3 1012.07 611.246C1014.42 613.191 1017.33 614.318 1020.38 614.455V614.455Z" fill="#0085CA"/>
<path opacity="0.1" d="M1024.38 573.117C1027.62 573.477 1030.77 574.487 1034.02 574.688C1037.27 574.888 1040.84 574.107 1042.9 571.587C1044.01 570.217 1044.56 568.498 1045.49 567.018C1046.38 565.635 1047.59 564.492 1049.03 563.688C1049.87 565.458 1050.34 567.386 1050.39 569.347C1050.45 571.309 1050.09 573.26 1049.34 575.073C1048.59 576.887 1047.47 578.523 1046.05 579.875C1044.62 581.227 1042.93 582.265 1041.08 582.922C1039.24 583.578 1037.27 583.839 1035.31 583.687C1033.36 583.535 1031.45 582.973 1029.73 582.038C1028 581.103 1026.49 579.816 1025.3 578.261C1024.1 576.705 1023.25 574.915 1022.79 573.008C1023.32 573.028 1023.85 573.067 1024.38 573.117Z" fill="black"/>
<path opacity="0.1" d="M1020.38 614.457C1022.8 614.58 1025.21 614.072 1027.38 612.984C1029.54 611.895 1031.39 610.263 1032.73 608.247C1034.08 606.232 1034.88 603.901 1035.05 601.484C1035.23 599.067 1034.77 596.645 1033.73 594.457C1032.61 595.209 1031.66 596.17 1030.91 597.287C1029.91 598.797 1029.3 600.537 1028.13 601.927C1025.94 604.497 1022.21 605.337 1018.82 605.177C1015.43 605.017 1012.16 604.067 1008.82 603.757C1008.35 603.757 1007.88 603.677 1007.41 603.667C1008.1 606.631 1009.74 609.288 1012.09 611.235C1014.43 613.182 1017.34 614.313 1020.38 614.457V614.457Z" fill="black"/>
<path opacity="0.1" d="M1054.45 637.127C1056.85 637.25 1059.24 636.754 1061.39 635.687C1063.54 634.619 1065.38 633.016 1066.73 631.031C1068.09 629.047 1068.91 626.747 1069.11 624.354C1069.32 621.961 1068.91 619.555 1067.92 617.367C1066.75 618.126 1065.74 619.092 1064.92 620.217C1063.83 621.757 1063.15 623.527 1061.92 624.947C1059.56 627.587 1055.58 628.517 1051.99 628.427C1048.4 628.337 1045.17 627.497 1041.71 627.237C1042.55 629.998 1044.23 632.431 1046.51 634.201C1048.79 635.972 1051.56 636.994 1054.45 637.127V637.127Z" fill="black"/>
<path opacity="0.1" d="M1047.52 664.376C1048.91 667.152 1051.19 669.385 1053.99 670.724C1056.8 672.062 1059.97 672.431 1063 671.771C1066.04 671.111 1068.77 669.461 1070.76 667.079C1072.76 664.697 1073.9 661.72 1074.02 658.616C1074.12 656.676 1073.81 654.737 1073.11 652.926C1071.95 653.682 1070.91 654.605 1070.03 655.666C1068.69 657.296 1067.82 659.136 1066.27 660.666C1063.4 663.486 1058.77 664.666 1054.65 664.756C1052.27 664.765 1049.89 664.639 1047.52 664.376V664.376Z" fill="black"/>
<path d="M1061.38 691.406C1058.38 685.896 1061.78 679.146 1065.66 674.226C1069.54 669.306 1074.27 664.226 1074.17 657.936C1074.03 648.936 1064.47 643.626 1056.84 638.856C1051.18 635.313 1045.95 631.114 1041.28 626.346C1039.32 624.508 1037.71 622.342 1036.5 619.946C1034.92 616.426 1034.97 612.426 1035.07 608.566C1035.39 595.726 1036.03 582.899 1036.97 570.086" stroke="#3F3D56" stroke-width="4" stroke-miterlimit="10"/>
<path d="M1022.49 569.376C1022.6 567.027 1023.29 564.743 1024.52 562.735C1025.74 560.727 1027.45 559.059 1029.49 557.886L1032.63 564.096L1032.54 556.576C1034.04 556.13 1035.6 555.941 1037.16 556.016C1039.92 556.153 1042.58 557.105 1044.8 558.753C1047.02 560.4 1048.71 562.669 1049.64 565.272C1050.58 567.876 1050.72 570.697 1050.05 573.381C1049.38 576.065 1047.93 578.491 1045.89 580.353C1043.84 582.214 1041.29 583.429 1038.56 583.842C1035.82 584.255 1033.02 583.849 1030.52 582.674C1028.02 581.5 1025.92 579.61 1024.48 577.244C1023.05 574.877 1022.35 572.139 1022.48 569.376H1022.49Z" fill="#57B894"/>
<path d="M1047.52 664.375C1048.91 667.15 1051.19 669.384 1053.99 670.722C1056.8 672.061 1059.97 672.43 1063 671.77C1066.04 671.11 1068.77 669.46 1070.76 667.078C1072.76 664.696 1073.9 661.719 1074.02 658.615C1074.12 656.675 1073.81 654.736 1073.11 652.925C1072.1 650.244 1070.3 647.937 1067.94 646.313C1065.58 644.689 1062.78 643.828 1059.92 643.844C1057.06 643.86 1054.27 644.754 1051.93 646.405C1049.59 648.055 1047.81 650.383 1046.84 653.075L1055.61 660.205L1045.97 657.965C1045.96 660.195 1046.49 662.393 1047.52 664.375V664.375Z" fill="#57B894"/>
<path d="M1054.45 637.126C1057.94 637.39 1061.41 636.333 1064.17 634.162C1066.92 631.991 1068.76 628.866 1069.32 625.404C1069.88 621.942 1069.13 618.395 1067.2 615.466C1065.27 612.537 1062.31 610.438 1058.91 609.586L1058.98 615.376L1055.8 609.086C1052.08 608.912 1048.44 610.223 1045.69 612.73C1042.94 615.238 1041.29 618.736 1041.12 622.456C1040.94 626.175 1042.26 629.812 1044.76 632.565C1047.27 635.318 1050.77 636.962 1054.49 637.136L1054.45 637.126Z" fill="#57B894"/>
<path d="M1020.38 614.455C1024.09 614.63 1027.72 613.323 1030.47 610.821C1033.22 608.319 1034.86 604.828 1035.04 601.115C1035.21 597.402 1033.91 593.771 1031.4 591.022C1028.9 588.272 1025.41 586.63 1021.7 586.455C1019.07 586.324 1016.47 586.941 1014.18 588.235L1016.66 595.035L1011.55 590.135C1008.82 592.638 1007.19 596.122 1007.02 599.825C1006.95 601.119 1007.07 602.416 1007.38 603.675C1008.08 606.642 1009.72 609.3 1012.07 611.246C1014.42 613.191 1017.33 614.318 1020.38 614.455V614.455Z" fill="#57B894"/>
<path opacity="0.1" d="M1024.38 573.117C1027.62 573.477 1030.77 574.487 1034.02 574.688C1037.27 574.888 1040.84 574.107 1042.9 571.587C1044.01 570.217 1044.56 568.498 1045.49 567.018C1046.38 565.635 1047.59 564.492 1049.03 563.688C1049.87 565.458 1050.34 567.386 1050.39 569.347C1050.45 571.309 1050.09 573.26 1049.34 575.073C1048.59 576.887 1047.47 578.523 1046.05 579.875C1044.62 581.227 1042.93 582.265 1041.08 582.922C1039.24 583.578 1037.27 583.839 1035.31 583.687C1033.36 583.535 1031.45 582.973 1029.73 582.038C1028 581.103 1026.49 579.816 1025.3 578.261C1024.1 576.705 1023.25 574.915 1022.79 573.008C1023.32 573.028 1023.85 573.067 1024.38 573.117Z" fill="black"/>
<path opacity="0.1" d="M1020.38 614.457C1022.8 614.58 1025.21 614.072 1027.38 612.984C1029.54 611.895 1031.39 610.263 1032.73 608.247C1034.08 606.232 1034.88 603.901 1035.05 601.484C1035.23 599.067 1034.77 596.645 1033.73 594.457C1032.61 595.209 1031.66 596.17 1030.91 597.287C1029.91 598.797 1029.3 600.537 1028.13 601.927C1025.94 604.497 1022.21 605.337 1018.82 605.177C1015.43 605.017 1012.16 604.067 1008.82 603.757C1008.35 603.757 1007.88 603.677 1007.41 603.667C1008.1 606.631 1009.74 609.288 1012.09 611.235C1014.43 613.182 1017.34 614.313 1020.38 614.457V614.457Z" fill="black"/>
<path opacity="0.1" d="M1054.45 637.127C1056.85 637.25 1059.24 636.754 1061.39 635.687C1063.54 634.619 1065.38 633.016 1066.73 631.031C1068.09 629.047 1068.91 626.747 1069.11 624.354C1069.32 621.961 1068.91 619.555 1067.92 617.367C1066.75 618.126 1065.74 619.092 1064.92 620.217C1063.83 621.757 1063.15 623.527 1061.92 624.947C1059.56 627.587 1055.58 628.517 1051.99 628.427C1048.4 628.337 1045.17 627.497 1041.71 627.237C1042.55 629.998 1044.23 632.431 1046.51 634.201C1048.79 635.972 1051.56 636.994 1054.45 637.127V637.127Z" fill="black"/>
<path opacity="0.1" d="M1047.52 664.376C1048.91 667.152 1051.19 669.385 1053.99 670.724C1056.8 672.062 1059.97 672.431 1063 671.771C1066.04 671.111 1068.77 669.461 1070.76 667.079C1072.76 664.697 1073.9 661.72 1074.02 658.616C1074.12 656.676 1073.81 654.737 1073.11 652.926C1071.95 653.682 1070.91 654.605 1070.03 655.666C1068.69 657.296 1067.82 659.136 1066.27 660.666C1063.4 663.486 1058.77 664.666 1054.65 664.756C1052.27 664.765 1049.89 664.639 1047.52 664.376V664.376Z" fill="black"/>
<path d="M777.067 329.97L784.414 329.083C785.118 328.997 785.818 328.889 786.553 328.801C775.386 321.059 767.186 309.749 763.3 296.729C759.414 283.708 760.075 269.754 765.173 257.158C770.27 244.563 779.502 234.078 791.35 227.426C803.199 220.774 816.957 218.351 830.365 220.557L819.652 242.781L843.286 224.192L843.441 224.232C858.125 230.268 869.81 241.888 875.927 256.538C882.044 271.188 882.092 287.667 876.061 302.352C875.632 303.409 875.124 304.414 874.642 305.435C881.184 302.553 887.502 299.138 892.74 294.627C903.377 285.46 909.565 272.374 916.601 256.211C930.539 224.203 944.05 191.692 957.081 159.077C944.914 151.678 935.785 140.181 931.335 126.653C926.885 113.125 927.407 98.4538 932.806 85.2761C933.504 83.5769 934.286 81.9511 935.112 80.3572C935.319 79.9564 935.526 79.5555 935.741 79.1668C936.581 77.6385 937.461 76.1518 938.417 74.6949C938.572 74.4561 938.751 74.2441 938.903 74.015C939.731 72.814 940.553 71.6325 941.503 70.5563C941.841 70.1274 942.18 69.6985 942.52 69.3012C943.547 68.0898 944.604 66.9174 945.72 65.8014C946.094 65.4334 946.482 65.0899 946.856 64.7219C947.707 63.9093 948.587 63.1041 949.469 62.3718C949.943 61.978 950.407 61.5817 950.888 61.2L951.247 60.8902C962.253 52.2601 975.934 47.7596 989.914 48.1711C1003.89 48.5826 1017.29 53.8801 1027.77 63.1426L1013.83 92.0631L1037.18 73.6898C1044.5 84.0575 1048.31 96.4928 1048.06 109.18C1047.81 121.867 1043.5 134.141 1035.78 144.21L1035.85 144.227C1035.58 144.572 1035.29 144.887 1035.02 145.232C1034.52 145.866 1034 146.487 1033.5 147.111C1032.82 147.896 1032.07 148.642 1031.41 149.4C1030.87 149.963 1030.34 150.529 1029.79 151.045C1028.96 151.866 1028.12 152.576 1027.27 153.316C1026.76 153.744 1026.28 154.198 1025.77 154.613C1024.46 155.708 1023.04 156.715 1021.61 157.669C1021.11 158.004 1020.6 158.293 1020.08 158.614C1019.08 159.243 1018.08 159.863 1017.05 160.432C1016.41 160.783 1015.74 161.127 1015.09 161.434C1014.15 161.914 1013.2 162.369 1012.24 162.761C1011.55 163.068 1010.86 163.353 1010.17 163.629C1009.17 164.021 1008.17 164.371 1007.16 164.719C1006.48 164.947 1005.8 165.174 1005.12 165.379C1003.99 165.719 1002.84 165.998 1001.68 166.267C1001.1 166.395 1000.57 166.568 999.936 166.672C998.213 167.021 996.467 167.303 994.712 167.499C994.382 167.537 994.04 167.542 993.712 167.57C992.251 167.709 990.78 167.844 989.327 167.83C988.694 167.841 988.058 167.821 987.421 167.811C986.237 167.794 985.049 167.755 983.861 167.675C983.186 167.624 982.49 167.557 981.775 167.475C980.619 167.351 979.463 167.187 978.305 166.99C977.622 166.875 976.949 166.763 976.261 166.626C975.027 166.368 973.795 166.06 972.568 165.732C972.488 165.706 972.408 165.685 972.326 165.669C966.829 179.396 961.243 193.1 955.565 206.78C961.901 201.658 969.217 197.884 977.063 195.689C984.91 193.495 993.122 192.926 1001.2 194.019C1009.27 195.111 1017.04 197.842 1024.02 202.042C1031 206.243 1037.05 211.825 1041.79 218.447L1019.95 240.248L1048.52 230.507C1054.58 245.109 1054.6 261.521 1048.58 276.14C1046.48 281.278 1043.67 286.094 1040.23 290.443C1032.81 299.873 1022.74 306.857 1011.31 310.489C999.876 314.121 987.616 314.233 976.12 310.811C964.625 307.389 954.423 300.59 946.838 291.298C939.254 282.005 934.638 270.648 933.59 258.699C932.996 260.074 932.402 261.491 931.813 262.846C925.603 277.095 917.88 294.835 903.568 307.182C893.864 315.577 882.189 320.612 871.021 324.806C863.758 327.539 856.405 330.032 848.962 332.286C840.595 336.795 831.274 339.247 821.771 339.438C810.077 342.05 798.29 344.098 786.413 345.581L779.003 346.472C772.341 347.267 765.518 348.083 758.704 349.067C759.65 349.405 760.598 349.733 761.533 350.109C773.281 354.936 783.191 363.372 789.831 374.199C796.471 385.025 799.498 397.683 798.474 410.342L751.722 422.109L793.029 430.852C789.05 439.483 783.05 447.029 775.537 452.849C763.209 462.411 747.636 466.782 732.133 465.033C716.63 463.284 702.422 455.553 692.534 443.485L693.587 447.796C694.296 450.645 694.988 453.479 695.646 456.283C704.682 494.509 698.45 523.884 678.097 539.016L668.132 525.641C687.945 510.917 683.705 478.262 679.419 460.108C678.768 457.357 678.078 454.596 677.442 451.786C671.519 427.703 664.797 400.407 676.576 376.258C694.272 339.831 740.159 334.359 777.067 329.97Z" fill="#F2F2F2"/>
<path d="M289.846 607.455L284.382 605.573C283.854 605.395 283.364 605.186 282.817 605.009C292.607 600.921 300.717 593.625 305.812 584.318C310.907 575.012 312.685 564.249 310.853 553.798C309.022 543.348 303.69 533.831 295.734 526.811C287.778 519.792 277.671 515.688 267.073 515.173L271.617 533.898L256.622 515.834L256.492 515.84C250.446 516.927 244.674 519.195 239.505 522.513C234.336 525.832 229.872 530.136 226.367 535.181C222.862 540.225 220.385 545.911 219.078 551.913C217.771 557.914 217.66 564.115 218.75 570.16C218.907 571.044 219.133 571.886 219.329 572.748C214.781 569.62 210.722 565.835 207.285 561.516C200.681 552.787 198.074 541.767 195.342 528.28C189.98 501.553 184.995 474.519 180.402 447.509C190.9 443.845 199.748 436.557 205.355 426.955C210.961 417.352 212.959 406.065 210.99 395.122C210.73 393.711 210.402 392.344 210.024 390.989L209.742 390C209.347 388.695 208.923 387.412 208.43 386.172C208.351 385.965 208.253 385.769 208.164 385.572C207.73 384.52 207.256 383.489 206.753 382.479C206.557 382.107 206.37 381.725 206.175 381.353C205.588 380.266 204.973 379.201 204.309 378.168C204.084 377.818 203.839 377.488 203.617 377.197C203.095 376.438 202.553 375.69 202.002 374.973C201.706 374.595 201.419 374.207 201.113 373.839L200.891 373.548C193.899 365.158 184.192 359.479 173.451 357.497C162.711 355.516 151.616 357.356 142.091 362.699L148.004 387.071L133.168 369.221C125.884 375.941 120.939 384.813 119.054 394.542C117.169 404.271 118.443 414.347 122.69 423.301L122.64 423.303C122.783 423.608 122.955 423.901 123.108 424.204C123.392 424.773 123.676 425.331 123.98 425.889C124.37 426.593 124.78 427.287 125.209 427.969C125.521 428.496 125.833 429.014 126.175 429.52C126.666 430.25 127.237 430.956 127.727 431.666C128.044 432.073 128.333 432.501 128.66 432.898C129.505 433.943 130.398 434.947 131.33 435.918C131.654 436.255 132.007 436.56 132.371 436.875C133.029 437.518 133.696 438.15 134.393 438.791C134.82 439.174 135.275 439.525 135.72 439.876C136.363 440.403 137.015 440.906 137.676 441.385C138.151 441.726 138.635 442.055 139.119 442.385C139.819 442.846 140.53 443.327 141.237 443.707C141.72 443.997 142.202 444.277 142.694 444.546C143.503 444.993 144.331 445.388 145.168 445.783C145.597 445.985 146.006 446.198 146.435 446.39C147.699 446.937 148.981 447.434 150.29 447.869C150.534 447.959 150.797 448.008 151.04 448.087C152.126 448.432 153.23 448.746 154.352 449.009C154.827 449.119 155.361 449.206 155.806 449.298C156.714 449.479 157.622 449.651 158.549 449.782L160.168 449.974C161.073 450.066 161.986 450.128 162.899 450.169C163.44 450.196 163.972 450.214 164.522 450.221C165.524 450.229 166.523 450.196 167.522 450.144L167.712 450.136C169.661 461.544 171.684 472.939 173.779 484.321C169.786 479.364 164.822 475.276 159.191 472.307C153.561 469.338 147.384 467.552 141.038 467.057C134.692 466.562 128.312 467.369 122.29 469.428C116.267 471.488 110.729 474.757 106.016 479.034L119.015 499.144L98.8067 487.035C95.3242 492.063 92.8662 497.727 91.573 503.705C90.2797 509.683 90.1766 515.857 91.2695 521.874C92.0309 526.146 93.3953 530.287 95.3219 534.174C99.4394 542.588 105.991 549.57 114.125 554.215C122.26 558.859 131.603 560.952 140.941 560.221C150.28 559.49 159.183 555.969 166.496 550.116C173.809 544.262 179.195 536.346 181.953 527.394C182.181 528.536 182.401 529.697 182.629 530.849C185.034 542.758 188.031 557.565 196.936 569.36C202.979 577.352 211.069 583.106 218.908 588.14C224.011 591.421 229.217 594.537 234.526 597.489C240.18 602.302 246.897 605.702 254.122 607.411C262.615 611.317 271.291 614.834 280.127 617.884L285.632 619.783C290.588 621.476 295.666 623.213 300.679 625.083C299.903 625.186 299.116 625.279 298.331 625.423C288.575 627.182 279.629 631.995 272.787 639.169C265.944 646.343 261.558 655.505 260.261 665.334L293.991 681.926L261.018 681.847C262.795 689.549 266.494 696.676 271.771 702.561C277.048 708.446 283.73 712.899 291.193 715.502C298.657 718.106 306.658 718.776 314.451 717.449C322.243 716.123 329.572 712.844 335.754 707.918C335.247 708.94 334.75 709.962 334.244 711.034C333.24 713.078 332.245 715.122 331.28 717.165C318.127 744.874 318.077 768.337 331.147 783.229L340.924 774.649C328.202 760.173 336.786 735.919 343.037 722.754C343.953 720.763 344.959 718.749 345.945 716.726C354.41 699.353 364.003 679.561 358.989 659.184C351.48 628.534 317.308 616.885 289.846 607.455Z" fill="#F2F2F2"/>
<path d="M556 720C861.966 720 1108 707.979 1108 695C1108 682.021 861.966 673 556 673C250.034 673 2 683.521 2 696.5C2 709.479 250.034 720 556 720Z" fill="#3F3D56"/>
<path opacity="0.1" d="M554 719C859.966 719 1108 708.479 1108 695.5C1108 682.521 859.966 672 554 672C248.034 672 0 682.521 0 695.5C0 708.479 248.034 719 554 719Z" fill="black"/>
<path d="M554 718.18C859.966 718.18 1108 707.658 1108 694.68C1108 681.701 859.966 671.18 554 671.18C248.034 671.18 0 681.701 0 694.68C0 707.658 248.034 718.18 554 718.18Z" fill="#3F3D56"/>
<path d="M85.0004 686.32C82.0004 680.81 85.4004 674.06 89.2804 669.14C93.1604 664.22 97.8903 659.14 97.7903 652.85C97.6503 643.85 88.0904 638.54 80.4604 633.77C74.7991 630.227 69.5762 626.028 64.9004 621.26C62.9459 619.422 61.3282 617.256 60.1204 614.86C58.5404 611.34 58.5904 607.34 58.6904 603.48C59.0237 590.64 59.657 577.813 60.5904 565" stroke="#3F3D56" stroke-width="4" stroke-miterlimit="10"/>
<path d="M46.1096 564.29C46.2176 561.941 46.9155 559.657 48.1389 557.649C49.3623 555.641 51.0718 553.973 53.1096 552.8L56.2496 559.01L56.1596 551.49C57.657 551.044 59.219 550.855 60.7796 550.93C63.5426 551.065 66.2037 552.016 68.4269 553.662C70.6502 555.308 72.3358 557.576 73.2712 560.18C74.2065 562.783 74.3496 565.605 73.6824 568.29C73.0152 570.975 71.5676 573.402 69.5223 575.264C67.477 577.127 64.9257 578.342 62.1905 578.756C59.4552 579.17 56.6587 578.764 54.1539 577.59C51.649 576.416 49.5482 574.526 48.1165 572.159C46.6848 569.792 45.9864 567.054 46.1096 564.29V564.29Z" fill="#57B894"/>
<path d="M71.1399 659.289C72.5345 662.065 74.8127 664.298 77.6158 665.637C80.419 666.975 83.5878 667.344 86.6233 666.684C89.6589 666.024 92.3888 664.374 94.3832 661.992C96.3777 659.61 97.5234 656.633 97.6399 653.529C97.7397 651.589 97.4297 649.65 96.7299 647.839C95.724 645.158 93.9205 642.851 91.5625 641.227C89.2045 639.603 86.4055 638.742 83.5426 638.758C80.6797 638.774 77.8907 639.668 75.5514 641.319C73.2122 642.969 71.4351 645.297 70.4599 647.989L79.2299 655.119L69.5899 652.879C69.5845 655.109 70.1161 657.307 71.1399 659.289V659.289Z" fill="#57B894"/>
<path d="M78.0699 632.04C81.5671 632.304 85.0362 631.247 87.7909 629.076C90.5456 626.905 92.3853 623.78 92.946 620.318C93.5066 616.856 92.7474 613.309 90.8186 610.38C88.8898 607.451 85.9318 605.352 82.5299 604.5L82.5999 610.29L79.4199 604C75.7003 603.826 72.0639 605.137 69.3109 607.644C66.5579 610.152 64.9136 613.65 64.7399 617.37C64.5662 621.089 65.8772 624.726 68.3846 627.479C70.8919 630.232 74.3903 631.876 78.1099 632.05L78.0699 632.04Z" fill="#57B894"/>
<path d="M44.0003 609.369C45.8388 609.455 47.6764 609.179 49.4081 608.556C51.1398 607.932 52.7318 606.974 54.0931 605.735C55.4544 604.496 56.5584 603.001 57.3421 601.336C58.1257 599.671 58.5736 597.867 58.6603 596.029C58.747 594.19 58.4707 592.353 57.8472 590.621C57.2237 588.889 56.2652 587.297 55.0265 585.936C53.7878 584.575 52.293 583.471 50.6276 582.687C48.9622 581.903 47.1588 581.455 45.3203 581.369C42.6957 581.238 40.0879 581.855 37.8003 583.149L40.2803 589.949L35.1703 585.049C32.4373 587.552 30.8082 591.036 30.6403 594.739C30.5725 596.033 30.6938 597.33 31.0003 598.589C31.6983 601.556 33.3455 604.214 35.6918 606.16C38.0381 608.105 40.9553 609.232 44.0003 609.369V609.369Z" fill="#57B894"/>
<path opacity="0.1" d="M48.0002 568.032C51.2402 568.392 54.3902 569.402 57.6402 569.602C60.8902 569.802 64.4601 569.022 66.5201 566.502C67.6301 565.132 68.1802 563.412 69.1102 561.932C70.0009 560.549 71.2162 559.406 72.6502 558.602C73.4969 560.372 73.9622 562.3 74.0157 564.261C74.0692 566.223 73.7098 568.174 72.9608 569.987C72.2119 571.801 71.09 573.437 69.668 574.789C68.246 576.141 66.5557 577.179 64.7067 577.836C62.8577 578.493 60.8912 578.753 58.935 578.601C56.9787 578.449 55.0762 577.887 53.3511 576.952C51.6259 576.018 50.1164 574.73 48.9207 573.175C47.725 571.619 46.8696 569.829 46.4102 567.922C46.9402 567.942 47.4702 567.982 48.0002 568.032Z" fill="black"/>
<path opacity="0.1" d="M44.0003 609.371C46.4208 609.494 48.8317 608.986 50.9971 607.898C53.1626 606.809 55.0084 605.177 56.3539 603.162C57.6995 601.146 58.4987 598.815 58.6733 596.398C58.848 593.981 58.3921 591.559 57.3503 589.371C56.2362 590.123 55.2785 591.084 54.5303 592.201C53.5303 593.711 52.9203 595.451 51.7503 596.841C49.5603 599.411 45.8303 600.251 42.4403 600.091C39.0503 599.931 35.7803 598.981 32.4403 598.671C31.9703 598.671 31.5003 598.591 31.0303 598.581C31.7249 601.545 33.3669 604.202 35.7074 606.149C38.0478 608.096 40.9592 609.227 44.0003 609.371V609.371Z" fill="black"/>
<path opacity="0.1" d="M78.0701 632.041C80.4689 632.164 82.859 631.668 85.0107 630.601C87.1624 629.533 89.0032 627.93 90.3562 625.945C91.7091 623.961 92.5286 621.661 92.736 619.268C92.9433 616.875 92.5315 614.469 91.5401 612.281C90.374 613.04 89.3572 614.006 88.5401 615.131C87.4501 616.671 86.7701 618.441 85.5401 619.861C83.1801 622.501 79.2001 623.431 75.6101 623.341C72.0201 623.251 68.7901 622.411 65.3301 622.151C66.1746 624.912 67.8521 627.345 70.1328 629.115C72.4136 630.886 75.1859 631.908 78.0701 632.041V632.041Z" fill="black"/>
<path opacity="0.1" d="M71.1396 659.29C72.5343 662.066 74.8125 664.299 77.6156 665.638C80.4187 666.976 83.5875 667.345 86.6231 666.685C89.6587 666.025 92.3886 664.375 94.383 661.993C96.3774 659.611 97.5231 656.634 97.6396 653.53C97.7395 651.59 97.4294 649.652 96.7296 647.84C95.5734 648.596 94.5355 649.52 93.6496 650.58C92.3096 652.21 91.4396 654.05 89.8896 655.58C87.0196 658.4 82.3896 659.58 78.2696 659.67C75.8877 659.679 73.5071 659.553 71.1396 659.29V659.29Z" fill="black"/>
<path d="M106.19 679.981C106.19 679.981 95.1099 679.641 91.7799 677.261C88.4499 674.881 74.7799 672.041 73.9099 675.861C73.0399 679.681 57.2599 694.861 69.7699 694.921C82.2799 694.981 98.8299 692.921 102.16 690.921C105.49 688.921 106.19 679.981 106.19 679.981Z" fill="#656380"/>
<path opacity="0.2" d="M69.5396 693.591C82.0496 693.691 98.5996 691.591 101.94 689.591C104.47 688.051 105.48 682.501 105.82 679.941H106.19C106.19 679.941 105.49 688.871 102.19 690.941C98.8896 693.011 82.2996 695.021 69.7996 694.941C66.1896 694.941 64.9396 693.631 65.0096 691.721C65.4796 692.851 66.8596 693.591 69.5396 693.591Z" fill="black"/>
<path opacity="0.2" d="M1039.54 702.591C1052.05 702.691 1068.6 700.591 1071.94 698.591C1074.47 697.051 1075.48 691.501 1075.82 688.941H1076.19C1076.19 688.941 1075.49 697.871 1072.19 699.941C1068.89 702.011 1052.3 704.021 1039.8 703.941C1036.19 703.941 1034.94 702.631 1035.01 700.721C1035.48 701.851 1036.86 702.591 1039.54 702.591Z" fill="black"/>
<path d="M745.57 331.149C738.957 328.883 732.29 326.783 725.57 324.849C726.677 320.323 727.707 315.773 728.66 311.199C743.8 237.689 733.9 178.469 700.09 158.979C667.67 140.279 614.65 159.779 561.09 206.369C555.81 210.983 550.654 215.716 545.62 220.569C542.24 217.336 538.807 214.166 535.32 211.059C479.21 161.229 423 140.239 389.18 159.789C356.79 178.539 347.18 234.209 360.83 303.879C362.164 310.779 363.694 317.639 365.42 324.459C357.47 326.719 349.78 329.129 342.42 331.699C276.63 354.589 234.61 390.589 234.61 427.879C234.61 466.389 279.72 505.019 348.25 528.439C353.81 530.326 359.41 532.079 365.05 533.699C363.224 541.033 361.597 548.426 360.17 555.879C347.17 624.339 357.33 678.699 389.63 697.329C423 716.589 479 696.789 533.52 649.129C537.83 645.359 542.15 641.359 546.52 637.179C551.974 642.439 557.57 647.546 563.31 652.499C616.13 697.949 668.31 716.309 700.57 697.619C733.9 678.329 744.73 619.929 730.67 548.889C729.604 543.463 728.36 537.926 726.94 532.279C730.88 531.119 734.734 529.916 738.5 528.669C809.74 505.069 856.1 466.909 856.1 427.879C856.1 390.449 812.72 354.259 745.6 331.149H745.57Z" fill="#53C1DE"/>
<path d="M730.12 503.47C726.72 504.6 723.24 505.68 719.68 506.74C710.994 479.811 700.48 453.507 688.21 428.01C700.012 402.854 710.118 376.936 718.46 350.43C724.81 352.27 730.99 354.21 736.93 356.26C794.44 376.05 829.52 405.32 829.52 427.88C829.52 451.88 791.63 483.09 730.12 503.47ZM704.6 554.05C710.82 585.46 711.7 613.86 707.6 636.05C703.9 656 696.46 669.3 687.26 674.63C667.67 685.96 625.79 671.23 580.62 632.36C575.44 627.9 570.23 623.15 564.99 618.11C583.822 597.261 601.225 575.164 617.08 551.97C645.402 549.571 673.525 545.227 701.25 538.97C702.517 544.09 703.64 549.09 704.62 553.97L704.6 554.05ZM446.48 672.69C427.34 679.45 412.1 679.64 402.89 674.33C383.29 663.02 375.14 619.33 386.26 560.83C387.593 553.917 389.103 547.04 390.79 540.2C418.401 546.129 446.382 550.181 474.54 552.33C490.859 575.443 508.681 597.457 527.89 618.23C524.03 621.97 520.083 625.607 516.05 629.14C491.94 650.22 467.77 665.14 446.48 672.69ZM356.84 503.32C326.53 492.96 301.51 479.5 284.35 464.82C268.94 451.62 261.16 438.51 261.16 427.88C261.16 405.25 294.9 376.38 351.16 356.77C358.227 354.31 365.357 352.067 372.55 350.04C380.907 376.839 391.025 403.056 402.84 428.52C390.878 454.349 380.636 480.941 372.18 508.12C367.02 506.647 361.907 505.047 356.84 503.32ZM386.89 298.78C375.21 239.09 382.96 194.06 402.48 182.78C423.27 170.78 469.24 187.9 517.7 230.93C520.8 233.68 523.91 236.56 527.02 239.53C507.948 260.176 490.266 282.064 474.09 305.05C446.197 307.552 418.496 311.857 391.16 317.94C389.567 311.594 388.144 305.21 386.89 298.79V298.78ZM655 364.97C648.927 354.477 642.63 344.117 636.11 333.89C655.94 336.4 674.93 339.72 692.77 343.8C687.045 361.96 680.407 379.82 672.88 397.31C667.14 386.41 661.18 375.63 655 364.97ZM545.64 258.5C558.564 272.59 570.769 287.322 582.21 302.64C557.737 301.487 533.253 301.487 508.76 302.64C520.83 286.72 533.2 271.92 545.64 258.51V258.5ZM435.64 365.15C429.54 375.73 423.69 386.444 418.09 397.29C410.36 378.96 403.75 360.93 398.35 343.52C416.08 339.52 434.99 336.31 454.69 333.84C448.077 344.134 441.72 354.57 435.62 365.15H435.64ZM455.25 523.8C436.022 521.713 416.913 518.639 398 514.59C403.49 496.88 410.25 478.46 418.15 459.73C423.77 470.59 429.64 481.31 435.76 491.89C441.987 502.684 448.477 513.32 455.23 523.8H455.25ZM546.39 599.13C533.79 585.59 521.24 570.59 509 554.38C520.9 554.854 533.02 555.09 545.36 555.09C558.027 555.09 570.53 554.81 582.87 554.25C571.479 569.825 559.297 584.805 546.37 599.13H546.39ZM673.08 458.78C680.997 476.625 687.98 494.87 694 513.44C674.853 517.749 655.493 521.05 636 523.33C642.567 512.91 648.927 502.367 655.08 491.7C661.334 480.86 667.334 469.887 673.08 458.78ZM632.08 478.44C622.667 494.787 612.73 510.82 602.27 526.54C583.83 527.86 564.78 528.54 545.36 528.54C525.94 528.54 507.21 527.94 489.09 526.76C478.364 511.094 468.233 495.037 458.7 478.59C449.167 462.144 440.33 445.45 432.19 428.51C440.37 411.49 449.18 394.79 458.62 378.41C468.047 362.037 478.09 346.037 488.75 330.41C507.24 329.01 526.18 328.28 545.34 328.28C564.5 328.28 583.56 329.02 602.03 330.42C612.57 346 622.57 361.937 632.03 378.23C641.49 394.524 650.42 411.147 658.82 428.1C650.52 445.18 641.617 461.947 632.11 478.4L632.08 478.44ZM686.85 181.98C707.66 193.98 715.75 242.38 702.68 305.85C701.82 309.977 700.887 314.094 699.88 318.2C672.504 311.994 644.746 307.608 616.79 305.07C600.77 282.064 583.22 260.161 564.26 239.51C568.927 235.017 573.69 230.647 578.55 226.4C624.43 186.47 667.31 170.71 686.85 181.98Z" fill="white"/>
<path d="M545.34 372.379C556.317 372.379 567.047 375.634 576.174 381.732C585.301 387.831 592.414 396.499 596.615 406.64C600.816 416.781 601.915 427.94 599.773 438.706C597.632 449.472 592.346 459.362 584.584 467.123C576.822 474.885 566.933 480.171 556.167 482.312C545.401 484.454 534.242 483.355 524.101 479.154C513.96 474.954 505.292 467.84 499.193 458.713C493.095 449.586 489.84 438.856 489.84 427.879C489.839 420.59 491.273 413.373 494.062 406.638C496.851 399.904 500.939 393.785 506.092 388.632C511.246 383.478 517.365 379.39 524.099 376.601C530.833 373.812 538.051 372.378 545.34 372.379" fill="#53C1DE"/>
<path d="M451.66 295.199C451.66 295.199 449.75 308.22 438.5 310C427.25 311.78 433.5 321 433.5 321L447 328H454C454 328 460.56 311.799 466.49 307.649C472.42 303.499 451.66 295.199 451.66 295.199Z" fill="#FFB8B8"/>
<path d="M451.66 295.199C451.66 295.199 449.75 308.22 438.5 310C427.25 311.78 433.5 321 433.5 321L447 328H454C454 328 460.56 311.799 466.49 307.649C472.42 303.499 451.66 295.199 451.66 295.199Z" fill="#FFB8B8"/>
<path d="M640.4 295.199C640.4 295.199 642.31 308.22 653.56 310C664.81 311.78 658.56 321 658.56 321L645.06 328H638.06C638.06 328 631.5 311.799 625.57 307.649C619.64 303.499 640.4 295.199 640.4 295.199Z" fill="#FFB8B8"/>
<path d="M518 177C518 177 505.87 182.38 503.5 189.5C503.5 189.5 492.02 195.01 484.86 206.27C484.86 206.27 475.96 215.76 474.78 220.5C473.6 225.24 460 253.7 460 253.7C460 253.7 452 292 448 299C448 299 451.5 307 469 312.5C469 312.5 469 315 477.19 299.95C483.12 279.2 497.35 253.7 497.35 253.7C497.35 253.7 502.09 235.92 506.24 232.95C510.39 229.98 516.91 216.35 522.84 219.95C528.77 223.55 567.9 219.35 567.9 219.35C567.9 219.35 591 229.99 591.58 237.1C592.16 244.21 596.32 244.81 596.91 250.74C597.5 256.67 619.44 303.5 619.44 303.5C619.44 303.5 624 312 624.5 312C624.5 312 638.5 306 647.5 297.5C647.5 297.5 647.5 297.5 646.5 294.5C643.682 286.047 620.63 224.03 620.63 224.03C620.63 224.03 618.26 215.73 615.89 213.36C613.52 210.99 596.52 190.86 590 190.86C590 190.86 581.15 178.19 577 177H518Z" fill="#2F2E41"/>
<path d="M525.139 199C525.139 199 522.769 230.43 537.589 235.76C552.409 241.09 539.369 209.67 539.369 209.67L534.619 200.19L525.139 199Z" fill="#FFB8B8"/>
<path d="M569.532 204C569.532 204 571.902 235.43 557.082 240.76C542.262 246.09 555.302 214.67 555.302 214.67L560.052 205.19L569.532 204Z" fill="#FFB8B8"/>
<path d="M826.73 672.96C831.47 664.18 826.09 653.42 819.91 645.59C813.73 637.76 806.18 629.59 806.34 619.59C806.57 605.24 821.79 596.78 833.96 589.17C842.981 583.529 851.303 576.839 858.75 569.24C861.75 566.19 864.62 562.93 866.37 559.03C868.89 553.43 868.82 547.03 868.66 540.91C868.134 520.437 867.134 499.99 865.66 479.57" stroke="#3F3D56" stroke-width="4" stroke-miterlimit="10"/>
<path d="M888.74 478.491C888.569 474.746 887.457 471.104 885.507 467.902C883.556 464.7 880.83 462.041 877.58 460.171L872.58 470.071L872.73 458.071C868.182 456.726 863.324 456.861 858.857 458.457C854.39 460.053 850.547 463.028 847.881 466.951C845.216 470.874 843.866 475.543 844.028 480.284C844.189 485.024 845.853 489.591 848.779 493.324C851.706 497.057 855.743 499.763 860.308 501.051C864.873 502.34 869.729 502.144 874.175 500.492C878.621 498.84 882.428 495.818 885.044 491.861C887.66 487.905 888.951 483.219 888.73 478.481L888.74 478.491Z" fill="#57B894"/>
<path d="M848.86 629.878C846.514 634.441 842.67 638.058 837.974 640.122C833.278 642.187 828.014 642.574 823.066 641.218C818.118 639.862 813.787 636.846 810.799 632.676C807.811 628.506 806.348 623.435 806.655 618.314C806.963 613.193 809.022 608.333 812.487 604.55C815.952 600.767 820.613 598.291 825.687 597.536C830.761 596.782 835.941 597.795 840.357 600.406C844.773 603.018 848.156 607.068 849.94 611.878L835.94 623.248L851.31 619.679C851.318 623.225 850.478 626.722 848.86 629.878V629.878Z" fill="#57B894"/>
<path d="M837.81 586.45C832.338 586.682 826.971 584.898 822.726 581.437C818.481 577.975 815.654 573.077 814.78 567.67C813.906 562.263 815.046 556.723 817.984 552.1C820.922 547.478 825.454 544.094 830.72 542.59L830.6 551.81L835.66 541.81H835.72C838.667 541.651 841.617 542.076 844.398 543.062C847.18 544.048 849.739 545.574 851.928 547.554C854.117 549.533 855.893 551.926 857.154 554.594C858.414 557.263 859.134 560.154 859.272 563.102C859.409 566.05 858.963 568.996 857.957 571.771C856.951 574.546 855.406 577.094 853.411 579.268C851.417 581.443 849.011 583.202 846.333 584.443C843.656 585.684 840.759 586.383 837.81 586.5V586.45Z" fill="#57B894"/>
<path d="M892.11 550.321C888.65 550.483 885.2 549.839 882.032 548.441C878.863 547.043 876.062 544.928 873.85 542.263C871.638 539.598 870.075 536.456 869.284 533.084C868.494 529.712 868.496 526.202 869.293 522.832C870.089 519.461 871.657 516.322 873.874 513.66C876.09 510.999 878.894 508.888 882.065 507.495C885.236 506.102 888.686 505.464 892.146 505.632C895.605 505.799 898.978 506.768 902 508.461L898 519.291L906.13 511.491C909.384 514.477 911.683 518.359 912.734 522.649C913.786 526.939 913.544 531.444 912.04 535.597C910.535 539.749 907.835 543.364 904.279 545.984C900.723 548.604 896.472 550.113 892.06 550.321H892.11Z" fill="#57B894"/>
<path opacity="0.1" d="M885.74 484.451C880.57 485.021 875.55 486.631 870.37 486.951C865.19 487.271 859.5 486.031 856.23 481.951C854.46 479.781 853.58 477.041 852.09 474.671C850.675 472.471 848.742 470.651 846.46 469.371C845.018 472.207 844.197 475.318 844.052 478.496C843.908 481.674 844.443 484.847 845.622 487.802C846.801 490.757 848.596 493.427 850.889 495.633C853.182 497.839 855.918 499.53 858.917 500.594C861.915 501.659 865.106 502.071 868.276 501.804C871.446 501.537 874.523 500.597 877.302 499.046C880.08 497.496 882.495 495.37 884.387 492.812C886.278 490.254 887.602 487.322 888.27 484.211C887.42 484.301 886.58 484.361 885.74 484.451Z" fill="black"/>
<path opacity="0.1" d="M892.11 550.32C888.255 550.497 884.42 549.674 880.976 547.932C877.532 546.19 874.598 543.587 872.457 540.376C870.315 537.165 869.04 533.456 868.755 529.607C868.47 525.758 869.185 521.901 870.83 518.41C872.611 519.604 874.14 521.137 875.33 522.92C876.92 525.32 877.89 528.1 879.76 530.31C883.24 534.4 889.2 535.74 894.6 535.5C900 535.26 905.2 533.72 910.6 533.22C911.35 533.16 912.1 533.11 912.86 533.09C911.747 537.829 909.118 542.074 905.374 545.184C901.629 548.293 896.972 550.097 892.11 550.32Z" fill="black"/>
<path opacity="0.1" d="M837.81 586.451C833.993 586.629 830.194 585.827 826.775 584.121C823.356 582.414 820.432 579.861 818.28 576.703C816.128 573.545 814.821 569.889 814.483 566.083C814.145 562.277 814.788 558.448 816.35 554.961C818.195 556.172 819.798 557.715 821.08 559.511C822.82 561.961 823.9 564.781 825.94 567.051C829.71 571.251 836.05 572.731 841.77 572.591C847.31 572.471 852.64 571.111 858.15 570.691C856.795 575.093 854.115 578.969 850.474 581.79C846.833 584.611 842.411 586.239 837.81 586.451V586.451Z" fill="black"/>
<path opacity="0.1" d="M848.86 629.88C846.267 635.02 841.793 638.963 836.368 640.889C830.943 642.814 824.984 642.574 819.731 640.218C814.478 637.862 810.336 633.572 808.166 628.24C805.996 622.908 805.965 616.944 808.08 611.59C809.924 612.799 811.579 614.275 812.99 615.97C815.12 618.56 816.52 621.5 818.99 623.91C823.56 628.4 830.94 630.25 837.51 630.42C841.3 630.462 845.09 630.281 848.86 629.88V629.88Z" fill="black"/>
<path d="M525.966 63.2983C527.725 45.4336 529.756 54.6994 552.764 57.8225C580.307 61.5613 579.491 53.3124 580.492 63.8351C579.44 68.3594 578.741 77.7073 553.668 72.5764C532.342 78.1215 527.601 64.9127 525.966 63.2983Z" fill="#2F2E41"/>
<path d="M793 662.85C793 662.85 810.65 662.31 816 658.52C821.35 654.73 843.16 650.21 844.48 656.28C845.8 662.35 871.01 686.5 851.08 686.66C831.15 686.82 804.77 683.56 799.46 680.32C794.15 677.08 793 662.85 793 662.85Z" fill="#656380"/>
<path opacity="0.2" d="M851.4 684.591C831.47 684.751 805.09 681.481 799.78 678.251C795.78 675.781 794.13 666.951 793.59 662.871H793C793 662.871 794.12 677.111 799.43 680.341C804.74 683.571 831.12 686.841 851.05 686.681C856.8 686.681 858.79 684.591 858.68 681.561C857.88 683.371 855.69 684.511 851.4 684.591Z" fill="black"/>
<path d="M323 42.8614L304.75 54.4314L315.83 34.2814C312.703 31.7814 308.833 30.395 304.83 30.3414H304.53C303.264 30.3591 301.999 30.2654 300.75 30.0614L294.56 33.9814L297.21 29.1614C292.83 27.6308 289.043 24.7579 286.39 20.9514L275.32 27.9514L282.32 15.2314C275.84 7.46141 267.12 2.69141 257.51 2.69141C246 2.69141 235.75 9.54141 229.13 20.2114C227.172 23.4017 224.406 26.0179 221.111 27.7951C217.817 29.5723 214.111 30.4472 210.37 30.3314H209.75C197.04 30.3314 186.75 44.7414 186.75 62.5214C186.75 80.3014 197.05 94.7014 209.75 94.7014C212.539 94.6933 215.285 94.0069 217.75 92.7014C226.04 88.3914 236.92 88.3114 245.6 92.1614C249.321 93.8353 253.354 94.7049 257.435 94.7135C261.515 94.7221 265.552 93.8695 269.28 92.2114C277.9 88.4414 288.65 88.5214 296.89 92.7514C299.335 94.0448 302.054 94.7308 304.82 94.7514C317.53 94.7514 327.82 80.3414 327.82 62.5714C327.896 55.7006 326.238 48.9216 323 42.8614V42.8614Z" fill="#F2F2F2"/>
<path opacity="0.03" d="M288.59 89.9498C281.95 88.6872 275.085 89.4323 268.87 92.0898C265.143 93.7465 261.109 94.5983 257.03 94.5897C252.951 94.5811 248.92 93.7122 245.2 92.0398C236.51 88.1898 225.63 88.2698 217.34 92.5798C214.875 93.8854 212.13 94.5717 209.34 94.5798C198.05 94.5798 188.66 83.1998 186.7 68.1998C188.956 66.5569 190.871 64.4921 192.34 62.1198C199 51.4598 209.21 44.5898 220.72 44.5898C232.23 44.5898 242.36 51.3599 248.98 61.9099C250.956 65.0974 253.72 67.7212 257.007 69.5273C260.293 71.3335 263.99 72.2609 267.74 72.2198H268C277 72.2298 284.8 79.4398 288.59 89.9498Z" fill="black"/>
<path d="M800.07 66.4184L791 72.1884L796.53 62.1884C794.968 60.9256 793.028 60.2216 791.02 60.1884H790.88C790.247 60.1973 789.614 60.1505 788.99 60.0484L785.9 62.0484L787.2 59.5884C785.014 58.8271 783.125 57.3959 781.8 55.4984L776.28 58.9984L779.77 52.6584C778.301 50.7631 776.429 49.2182 774.29 48.1355C772.15 47.0528 769.797 46.4594 767.4 46.3984C761.65 46.3984 756.54 49.8184 753.24 55.1384C752.259 56.723 750.877 58.0201 749.233 58.8982C747.589 59.7762 745.742 60.2041 743.88 60.1384H743.57C737.23 60.1384 732.09 67.3284 732.09 76.1384C732.09 84.9484 737.23 92.1884 743.57 92.1884C744.964 92.1836 746.337 91.8404 747.57 91.1884C749.727 90.1401 752.087 89.5731 754.485 89.5264C756.883 89.4798 759.263 89.9548 761.46 90.9184C763.319 91.7458 765.33 92.1734 767.365 92.1734C769.399 92.1734 771.411 91.7458 773.27 90.9184C775.45 89.9741 777.808 89.5094 780.184 89.556C782.56 89.6026 784.898 90.1593 787.04 91.1884C788.272 91.8408 789.645 92.184 791.04 92.1884C797.38 92.1884 802.52 85.0084 802.52 76.1384C802.529 72.7445 801.687 69.4024 800.07 66.4184V66.4184Z" fill="#F2F2F2"/>
<path opacity="0.03" d="M782.92 89.9111C779.61 89.2859 776.188 89.6583 773.09 90.9811C771.231 91.8085 769.22 92.2361 767.185 92.2361C765.151 92.2361 763.139 91.8085 761.28 90.9811C759.082 90.0172 756.7 89.5422 754.3 89.5888C751.901 89.6354 749.539 90.2026 747.38 91.2511C746.148 91.9057 744.775 92.2491 743.38 92.2511C737.74 92.2511 733.06 86.5811 732.08 79.1011C733.202 78.2888 734.159 77.2707 734.9 76.1011C738.2 70.7811 743.32 67.3711 749.06 67.3711C754.8 67.3711 759.85 70.7411 763.15 76.0011C764.135 77.5922 765.514 78.9017 767.154 79.8023C768.794 80.7029 770.639 81.1641 772.51 81.1411H772.66C777.15 81.0711 781 84.6711 782.92 89.9111Z" fill="black"/>
<path d="M204.34 215.86L219 225.14L210.12 208.99C212.638 206.986 215.752 205.877 218.97 205.84H219.2C220.205 205.855 221.208 205.781 222.2 205.62L227.15 208.76L225 204.9C228.507 203.667 231.539 201.366 233.67 198.32L242.54 203.94L237 193.75C242.19 187.53 249.18 183.75 256.87 183.75C266.1 183.75 274.31 189.23 279.62 197.75C281.185 200.303 283.396 202.398 286.03 203.822C288.664 205.246 291.627 205.949 294.62 205.86H295.12C305.3 205.86 313.55 217.4 313.55 231.64C313.55 245.88 305.3 257.43 295.12 257.43C292.878 257.421 290.672 256.869 288.69 255.82C285.224 254.136 281.434 253.226 277.582 253.151C273.73 253.077 269.908 253.841 266.38 255.39C263.391 256.726 260.154 257.417 256.88 257.417C253.606 257.417 250.369 256.726 247.38 255.39C243.877 253.873 240.09 253.126 236.273 253.2C232.457 253.274 228.701 254.168 225.26 255.82C223.298 256.841 221.121 257.379 218.91 257.39C208.72 257.39 200.47 245.85 200.47 231.6C200.422 226.112 201.753 220.7 204.34 215.86V215.86Z" fill="#F2F2F2"/>
<path opacity="0.03" d="M231.89 253.59C237.21 252.587 242.709 253.186 247.69 255.31C250.679 256.646 253.916 257.336 257.19 257.336C260.464 257.336 263.701 256.646 266.69 255.31C270.219 253.761 274.043 252.997 277.897 253.071C281.751 253.145 285.542 254.056 289.01 255.74C290.988 256.789 293.191 257.341 295.43 257.35C304.48 257.35 312 248.24 313.57 236.22C311.764 234.898 310.229 233.241 309.05 231.34C303.74 222.8 295.53 217.34 286.3 217.34C277.07 217.34 268.97 222.76 263.66 231.22C262.08 233.769 259.869 235.867 257.242 237.312C254.614 238.757 251.658 239.5 248.66 239.47H248.43C241.17 239.4 234.93 245.18 231.89 253.59Z" fill="black"/>
<path d="M570 88C574.971 88 579 83.7467 579 78.5C579 73.2533 574.971 69 570 69C565.029 69 561 73.2533 561 78.5C561 83.7467 565.029 88 570 88Z" fill="#FF9362"/>
<path d="M572.645 69.4716C574.118 69.4718 575.566 69.9145 576.847 70.7564C578.128 71.5982 579.198 72.8104 579.953 74.2745C580.708 75.7385 581.122 77.4043 581.154 79.109C581.187 80.8137 580.837 82.499 580.138 84C580.876 82.9313 581.413 81.6963 581.716 80.3738C582.019 79.0514 582.08 77.6704 581.897 76.3188C581.713 74.9673 581.288 73.675 580.649 72.5241C580.01 71.3732 579.171 70.389 578.185 69.6343C577.199 68.8796 576.088 68.3709 574.923 68.1406C573.758 67.9103 572.564 67.9634 571.418 68.2967C570.272 68.6299 569.198 69.236 568.265 70.0761C567.332 70.9163 566.561 71.9722 566 73.1766C566.796 72.0203 567.806 71.0867 568.957 70.4452C570.107 69.8037 571.368 69.4709 572.645 69.4716V69.4716Z" fill="#FF9362"/>
<path d="M533.077 21.7881C548.354 27.9874 546.146 22.5324 541.153 50.074C536.251 77.1141 539.612 59.1359 537.26 68.5564C533.549 66.4131 513.5 67.5 521 44.5C516 27.503 531.231 22.9234 533.077 21.7881Z" fill="#2F2E41"/>
<path d="M574.027 22.8122C558.75 29.0115 560.958 23.5564 565.951 51.0981C570.853 78.1381 567.492 60.16 569.844 69.5805C573.556 67.4371 592 68.9844 586 45.4844C591 28.4874 575.873 23.9474 574.027 22.8122Z" fill="#2F2E41"/>
<path d="M553.5 79C567.583 79 579 66.464 579 51C579 35.536 567.583 23 553.5 23C539.417 23 528 35.536 528 51C528 66.464 539.417 79 553.5 79Z" fill="#F28B5C"/>
<path d="M533.717 33.5387C538.104 28.1713 544.236 24.8681 550.819 24.3263C557.402 23.7844 563.921 26.0463 569 30.6345C568.792 30.4192 568.586 30.2022 568.37 29.993C563.323 25.1143 556.702 22.6162 549.962 23.0479C543.223 23.4797 536.917 26.806 532.432 32.2953C527.946 37.7846 525.648 44.9873 526.044 52.3195C526.439 59.6517 529.495 66.5128 534.54 71.3939C534.756 71.6032 534.978 71.8003 535.199 72C530.416 67.0497 527.587 60.2713 527.311 53.0953C527.035 45.9192 529.332 38.9071 533.717 33.5387V33.5387Z" fill="#FF9362"/>
<path opacity="0.1" d="M515.503 93.0625L508.867 100.847C508.867 100.847 512.707 127.958 513.053 132.678C513.401 136.092 514.055 139.851 515.053 143.178C515.053 143.178 515.423 156.914 515.053 162.178C514.683 167.443 518.053 177.678 518.053 177.678C518.182 182.681 518.585 185.813 520.053 190.678C522.311 197.297 525.052 206.682 525.052 206.682C525.052 206.682 528.052 200.182 539.317 210.993C540.924 209.775 541.921 208.561 542.052 206.702C542.183 204.842 541.437 202.486 540.016 201.055C540.016 201.055 536.477 184.871 537.053 176.678C538.12 168.678 532.072 128.843 532.072 128.843C532.072 128.843 532.537 83.0642 515.503 93.0625Z" fill="#6D688A"/>
<path d="M553.5 79C562.613 79 570 70.7173 570 60.5C570 50.2827 562.613 42 553.5 42C544.387 42 537 50.2827 537 60.5C537 70.7173 544.387 79 553.5 79Z" fill="#FFB8B8"/>
<path d="M541.684 67C541.684 67 543.894 88.1746 540.357 90.4762C536.821 92.7778 560.695 96 560.695 96C560.695 96 557.158 72.9841 566 67H541.684Z" fill="#FFB8B8"/>
<path d="M562.588 85.7629C562.588 85.7629 569.055 82.462 559.741 83.6377C550.428 84.8135 542.393 80.3037 542.393 80.3037C542.393 80.3037 539.571 77.218 539.137 80.541C538.702 83.864 540.439 90.0353 530.885 90.9847C521.331 91.9342 518.474 89.3793 515 96.5C511.526 103.621 515 132.5 515 132.5C515 132.5 515.448 159.818 520.66 163.616C525.871 167.414 569.971 162.192 569.971 162.192L582.999 136.557V106.65C582.999 106.65 581.659 95.1517 569.499 98C569.499 98 561.285 97.156 561.719 92.8836C562.154 88.6112 562.588 85.7629 562.588 85.7629Z" fill="#C7C2E4"/>
<path d="M526.5 114.5L547.5 116.5L569 115.5V183.5H527L526.5 114.5Z" fill="#2F2E41"/>
<path d="M514.534 93.5577L508.863 100.949C508.863 100.949 512.401 127.717 512.882 132.47C513.317 135.901 514.039 139.291 515.041 142.602C515.041 142.602 515.305 156.842 515.183 162.17C515.061 167.499 517.856 176.465 517.856 176.465C518.156 181.514 519.049 186.51 520.516 191.35C522.735 197.933 524.938 205.685 524.938 205.685C524.938 205.685 528.128 197.456 539.659 210.173C541.011 208.861 541.792 207.07 541.836 205.187C541.879 203.304 541.18 201.479 539.89 200.106C539.89 200.106 536.698 184.029 536.888 175.721C537.078 167.413 531.469 127.584 531.469 127.584C531.469 127.584 529.019 82.6166 514.534 93.5577Z" fill="#C1BAE8"/>
<path d="M525.5 91.2673C525.5 91.2673 530.677 100.619 529 112.5C527.323 124.381 535.5 154 535.5 154L540 152.574C540 152.574 535.661 127.703 536.5 122C537.339 116.297 537.194 94.1188 533 91.2673C528.806 88.4158 525.5 91.2673 525.5 91.2673Z" fill="#2F2E41"/>
<path d="M540 38V56H543.734L548.485 50.3158L547.849 56H564.351L563.333 50.3158L565.37 56H568V38H540Z" fill="#F28B5C"/>
<path d="M447 305C447 305 444.5 308 443 308.501C431.75 310.281 427 329 427 329L440.5 336L458.269 318.699C458.269 318.699 457.51 320.351 460 316C455.5 313.5 447 305 447 305Z" fill="#B9B4DA"/>
<path d="M644.494 304.208C644.494 304.208 646.946 307.247 648.437 307.773C659.657 309.732 664.108 328.524 664.108 328.524L650.497 335.308L633.008 317.725C633.008 317.725 633.74 319.389 631.32 314.999C635.859 312.571 644.494 304.208 644.494 304.208Z" fill="#B9B4DA"/>
<path d="M536.5 59C537.328 59 538 57.8807 538 56.5C538 55.1193 537.328 54 536.5 54C535.672 54 535 55.1193 535 56.5C535 57.8807 535.672 59 536.5 59Z" fill="#FFB8B8"/>
<path d="M582.177 101.652L585.177 105.182C585.177 105.182 588.667 125.372 580.957 150.862L578.587 173.982C578.587 173.982 574.437 193.552 573.847 198.292C573.257 203.032 573.247 203.632 572.067 205.412C571.704 205.827 571.504 206.36 571.504 206.912C571.504 207.463 571.704 207.996 572.067 208.412L568.527 221.452C568.527 221.452 563.197 214.922 552.527 223.222C552.527 223.222 549.527 218.482 551.937 214.332C554.347 210.182 554.307 208.402 553.717 207.222C553.127 206.042 556.087 200.102 556.087 198.922C556.087 197.742 560.237 170.462 560.237 170.462C560.237 170.462 562.017 143.782 563.797 134.882C565.577 125.982 564.387 99.3116 564.387 99.3116C564.387 99.3116 573.877 92.7916 582.177 101.652Z" fill="#C1BAE8"/>
<path opacity="0.1" d="M582 101.731L585 105.231C585 105.231 588.691 125.316 580.981 150.816L578.611 173.936C578.611 173.936 574.461 193.506 573.871 198.246C573.281 202.986 573.281 203.576 572.091 205.356C571.73 205.773 571.531 206.305 571.531 206.856C571.531 207.407 571.73 207.94 572.091 208.356L568.531 221.356C568.531 221.356 563.201 214.836 552.531 223.136C552.531 223.136 549.531 218.396 551.931 214.246C554.331 210.096 554.301 208.316 553.711 207.126C553.121 205.936 556.081 200.016 556.081 198.826C556.081 197.636 560.261 170.386 560.261 170.386C560.261 170.386 562.041 143.706 563.821 134.816C564.911 129.346 564.69 116.58 564.5 108C564.31 99.06 573.63 93.4525 580 99.7325C580 99.7325 581.83 101.511 582 101.731Z" fill="#C1BAE8"/>
<path d="M570 59C570.552 59 571 57.8807 571 56.5C571 55.1193 570.552 54 570 54C569.448 54 569 55.1193 569 56.5C569 57.8807 569.448 59 570 59Z" fill="#FFB8B8"/>
<path d="M565.003 99.7135L557.5 151.5L561.5 153C561.5 153 574.755 97 572.287 97H567.264C566.957 97 566.653 97.0712 566.371 97.2093C566.089 97.3474 565.834 97.5496 565.623 97.8034C565.411 98.0572 565.247 98.3574 565.141 98.6858C565.034 99.0142 564.987 99.3638 565.003 99.7135Z" fill="#2F2E41"/>
<path d="M566.002 67.002C566.003 67.0015 566.008 66.9993 566.003 67.0002C566.002 67.0004 565.999 67.0015 566 67.001" stroke="#CE7952" stroke-linecap="round" stroke-linejoin="round"/>
<path d="M545.002 65.002C545.003 65.0015 545.008 64.9993 545.003 65.0002C545.002 65.0004 544.999 65.0015 545 65.001" stroke="#CE7952" stroke-linecap="round" stroke-linejoin="round"/>
<path d="M542.002 67.002C542.003 67.0015 542.008 66.9993 542.003 67.0002C542.002 67.0004 541.999 67.0015 542 67.001" stroke="#CE7952" stroke-linecap="round" stroke-linejoin="round"/>
<path d="M560.002 67.002C560.003 67.0015 560.008 66.9993 560.003 67.0002C560.002 67.0004 559.999 67.0015 560 67.001" stroke="#CE7952" stroke-linecap="round" stroke-linejoin="round"/>
<path d="M563.002 65.002C563.003 65.0015 563.008 64.9993 563.003 65.0002C563.002 65.0004 562.999 65.0015 563 65.001" stroke="#CE7952" stroke-linecap="round" stroke-linejoin="round"/>
<path d="M548.002 67.002C548.003 67.0015 548.008 66.9993 548.003 67.0002C548.002 67.0004 547.999 67.0015 548 67.001" stroke="#CE7952" stroke-linecap="round" stroke-linejoin="round"/>
<path d="M554.002 65.002C554.003 65.0015 554.008 64.9993 554.003 65.0002C554.002 65.0004 553.999 65.0015 554 65.001" stroke="#CE7952" stroke-linecap="round" stroke-linejoin="round"/>
<path d="M631.72 316.79C633.866 317.987 636.231 318.847 638.745 319.342C642.809 320.117 646.099 314.882 646.099 314.882C646.099 314.882 648.175 306.838 650.668 307.364C653.162 307.89 665.998 310.186 665.998 310.186C665.998 310.186 697.706 305.922 683.138 323.107C662.06 332 640.56 339.5 640.56 339.5C640.56 339.5 640.254 340.906 636.544 337.571C632.835 334.236 631.72 316.79 631.72 316.79Z" fill="#2F2E41"/>
<path d="M631.72 316.79C633.866 317.987 636.231 318.847 638.745 319.342C642.809 320.117 646.099 314.882 646.099 314.882C646.099 314.882 648.175 306.838 650.668 307.364C653.162 307.89 665.998 310.186 665.998 310.186C665.998 310.186 697.706 305.922 683.138 323.107C662.06 332 640.56 339.5 640.56 339.5C640.56 339.5 640.254 340.906 636.544 337.571C632.835 334.236 631.72 316.79 631.72 316.79Z" fill="#2F2E41"/>
<path d="M460.34 316.79C458.193 317.987 455.828 318.847 453.314 319.342C449.251 320.117 445.96 314.882 445.96 314.882C445.96 314.882 443.885 306.838 441.391 307.364C438.898 307.89 426.062 310.186 426.062 310.186C426.062 310.186 394.354 305.922 408.922 323.107C430 332 451.5 339.5 451.5 339.5C451.5 339.5 451.806 340.906 455.515 337.571C459.224 334.236 460.34 316.79 460.34 316.79Z" fill="#2F2E41"/>
<path d="M460.34 316.79C458.193 317.987 455.828 318.847 453.314 319.342C449.251 320.117 445.96 314.882 445.96 314.882C445.96 314.882 443.885 306.838 441.391 307.364C438.898 307.89 426.062 310.186 426.062 310.186C426.062 310.186 394.354 305.922 408.922 323.107C430 332 451.5 339.5 451.5 339.5C451.5 339.5 451.806 340.906 455.515 337.571C459.224 334.236 460.34 316.79 460.34 316.79Z" fill="#2F2E41"/>
<path d="M578 25.073C575.035 42.5441 578.445 30.6291 553.856 30.6291C529.715 30.6291 530.001 35.5534 530 25.0714C531.271 20.7037 539.457 9.20751 554.282 17.1406C573 11 576.729 23.3259 578 25.073Z" fill="#2F2E41"/>
<path d="M577.535 34.3602C577.48 36.2924 566.024 32.0287 553.603 31.6719C541.181 31.3151 529.956 36.4279 530.012 34.4957C530.067 32.5635 538 25.5 553.804 24.6748C566.225 25.0316 577.591 32.428 577.535 34.3602Z" fill="#24233D"/>
<path d="M552.992 20.3516C552.897 21.0835 552.917 21.8178 553.052 22.4828C553.187 23.1477 552.67 24.0753 553 24.5C552.692 24.8548 552.392 22.7568 552.831 22.8305C553.271 22.9043 552.618 22.7792 553.052 22.4828C552.728 22.8133 553.453 25 553.453 25C552.953 25 552.953 24.5 553.453 25C553.089 25 553.293 24.9806 552.953 25C552.697 24.6435 552.806 23.6249 552.675 23.1096C552.543 22.5942 552.484 22.0251 552.5 21.4384C552.516 20.8517 552.607 20.2604 552.768 19.702C552.929 19.1437 553.155 18.6307 553.433 18.1956C553.711 17.7606 554.035 17.413 554.383 17.1751C554.032 17.5313 553.725 18.0019 553.484 18.5519C553.243 19.1019 553.075 19.717 552.992 20.3516Z" fill="#24233D"/>
<path d="M583.161 47.027C582.556 47.2571 581.92 47.3754 581.315 47.3701C580.711 47.3649 580.041 48.0392 579.595 47.8C579.365 48.1645 581.242 48.0599 581.071 47.649C580.899 47.2381 581.167 47.8456 581.315 47.3701C581.111 47.7462 579.053 47.4557 579.053 47.4557C579.176 47.9394 579.606 47.8453 579.053 47.4557C579.143 47.8084 579.109 47.6068 579.176 47.9394C579.546 48.1203 580.394 47.8229 580.869 47.853C581.344 47.8831 581.848 47.8336 582.348 47.7077C582.848 47.5818 583.334 47.3823 583.774 47.1219C584.214 46.8614 584.6 46.5458 584.905 46.195C585.21 45.8443 585.429 45.4661 585.548 45.0846C585.328 45.4911 585 45.8768 584.586 46.2131C584.173 46.5494 583.686 46.8276 583.161 47.027Z" fill="#24233D"/>
<path d="M523.186 45.7678C523.64 45.9405 524.128 46.0023 524.601 45.9471C525.074 45.8919 525.542 46.4894 525.91 46.2207C526.059 46.5547 524.601 46.609 524.769 46.1969C524.937 45.7848 524.677 46.3952 524.601 45.9471C524.729 46.2944 526.362 45.8424 526.362 45.8424C526.226 46.321 525.898 46.2656 526.362 45.8424C526.263 46.1914 526.306 45.9934 526.226 46.321C525.922 46.5269 525.283 46.3092 524.909 46.3777C524.535 46.4463 524.145 46.4401 523.765 46.3597C523.384 46.2793 523.021 46.1263 522.698 45.9106C522.376 45.6948 522.101 45.4211 521.891 45.1067C521.681 44.7923 521.541 44.4442 521.48 44.0846C521.618 44.46 521.843 44.8063 522.139 45.0978C522.434 45.3892 522.792 45.6182 523.186 45.7678Z" fill="#24233D"/>
<path d="M532.124 26.374C532.524 26.9947 533.013 27.5424 533.546 27.9634C534.078 28.3844 534.282 29.4264 534.808 29.5379C534.801 30.0076 533.218 28.5985 533.601 28.3715C533.984 28.1444 533.405 28.4698 533.546 27.9634C533.511 28.4253 535.476 29.6273 535.476 29.6273C535.095 29.95 534.772 29.5681 535.476 29.6273C535.198 29.8626 535.342 29.7158 535.095 29.95C534.669 29.8432 534.095 28.9946 533.662 28.6857C533.229 28.3768 532.816 27.9804 532.45 27.5219C532.083 27.0635 531.771 26.5528 531.534 26.0227C531.296 25.4925 531.138 24.9544 531.07 24.4426C531.001 23.9308 531.024 23.4567 531.136 23.0503C531.098 23.5488 531.167 24.1066 531.338 24.6821C531.509 25.2576 531.778 25.8359 532.124 26.374Z" fill="#24233D"/>
<path d="M576.576 28.314C576.141 28.9101 575.62 29.4278 575.064 29.8166C574.508 30.2053 574.243 31.2335 573.711 31.3136C573.689 31.7829 575.353 30.47 574.984 30.2206C574.615 29.9713 575.174 30.3304 575.064 29.8166C575.071 30.2797 573.038 31.3634 573.038 31.3634C573.4 31.7081 573.745 31.3459 573.038 31.3634C573.302 31.6147 573.167 31.4596 573.4 31.7081C573.831 31.6267 574.455 30.8134 574.905 30.5307C575.355 30.248 575.791 29.8768 576.184 29.4408C576.577 29.0047 576.918 28.5135 577.187 27.9983C577.455 27.4831 577.645 26.9553 577.744 26.4485C577.842 25.9416 577.847 25.4669 577.759 25.0546C577.768 25.5546 577.666 26.1073 577.461 26.6716C577.256 27.236 576.954 27.7974 576.576 28.314Z" fill="#24233D"/>
<path d="M1076.19 688.981C1076.19 688.981 1065.11 688.641 1061.78 686.261C1058.45 683.881 1044.78 681.041 1043.91 684.861C1043.04 688.681 1027.26 703.861 1039.77 703.921C1052.28 703.981 1068.83 701.921 1072.16 699.921C1075.49 697.921 1076.19 688.981 1076.19 688.981Z" fill="#656380"/>
</g>
<defs>
<clipPath id="clip0">
<rect width="1108" height="731.18" fill="white"/>
</clipPath>
</defs>
</svg>
